<svg width="153" height="35" viewBox="0 0 153 35" fill="none" xmlns="http://www.w3.org/2000/svg">
<path d="M7.60065 26.5793C6.94627 26.5793 6.44688 26.403 6.10247 26.0504C5.75807 25.6978 5.58586 25.1941 5.58586 24.5393V17.2355L6.41244 19.477L0.316425 11.04C0.0753392 10.6874 -0.0279831 10.3096 0.00645765 9.90666C0.0408984 9.48691 0.213102 9.12592 0.523069 8.82369C0.833036 8.52147 1.27216 8.37036 1.84043 8.37036C2.25372 8.37036 2.62396 8.4711 2.95114 8.67258C3.29555 8.87407 3.62274 9.19308 3.93271 9.62962L8.0656 15.4474H7.23902L11.3719 9.62962C11.6991 9.17629 12.0177 8.85728 12.3276 8.67258C12.6548 8.4711 13.0337 8.37036 13.4642 8.37036C14.0152 8.37036 14.4458 8.51308 14.7557 8.79851C15.0657 9.06715 15.2293 9.41135 15.2465 9.8311C15.2637 10.2341 15.1173 10.6538 14.8074 11.0904L8.78885 19.477L9.5896 17.2355V24.5393C9.5896 25.8993 8.92662 26.5793 7.60065 26.5793Z" fill="white"/>
<path d="M21.1332 26.6296C19.7728 26.6296 18.5846 26.3694 17.5686 25.8489C16.5698 25.3284 15.7949 24.5812 15.2439 23.6074C14.6928 22.6336 14.4173 21.4834 14.4173 20.157C14.4173 19.1664 14.5723 18.2765 14.8822 17.4874C15.1922 16.6983 15.6399 16.0267 16.2254 15.4726C16.8281 14.9017 17.5428 14.4736 18.3694 14.1881C19.196 13.8859 20.1172 13.7348 21.1332 13.7348C22.4937 13.7348 23.6733 13.9951 24.672 14.5155C25.688 15.036 26.4716 15.7748 27.0226 16.7318C27.5909 17.6889 27.875 18.8306 27.875 20.157C27.875 21.1644 27.7114 22.0627 27.3842 22.8518C27.0743 23.641 26.6266 24.321 26.0411 24.8918C25.4556 25.4627 24.7409 25.8993 23.8971 26.2015C23.0705 26.4869 22.1493 26.6296 21.1332 26.6296ZM21.1332 23.7837C21.7015 23.7837 22.1923 23.6494 22.6056 23.3807C23.0189 23.1121 23.3461 22.7175 23.5872 22.197C23.8282 21.6597 23.9488 20.9797 23.9488 20.157C23.9488 18.9314 23.6905 18.0331 23.1739 17.4622C22.6573 16.8746 21.977 16.5807 21.1332 16.5807C20.5822 16.5807 20.0914 16.7067 19.6609 16.9585C19.2476 17.2104 18.9204 17.6049 18.6793 18.1422C18.4555 18.6627 18.3435 19.3343 18.3435 20.157C18.3435 21.3827 18.6019 22.2978 19.1185 22.9022C19.6351 23.4899 20.3067 23.7837 21.1332 23.7837Z" fill="white"/>
<path d="M34.9233 26.6296C33.8557 26.6296 32.9688 26.4365 32.2628 26.0504C31.5568 25.6642 31.0315 25.0849 30.6871 24.3126C30.3599 23.5234 30.1963 22.5496 30.1963 21.3911V15.6993C30.1963 15.0612 30.3599 14.5827 30.6871 14.2637C31.0315 13.9447 31.5137 13.7852 32.1336 13.7852C32.7536 13.7852 33.2357 13.9447 33.5802 14.2637C33.9246 14.5827 34.0968 15.0612 34.0968 15.6993V21.4918C34.0968 22.2306 34.2518 22.7847 34.5617 23.1541C34.8717 23.5067 35.3625 23.683 36.0341 23.683C36.7745 23.683 37.3773 23.4311 37.8422 22.9274C38.3244 22.4069 38.5655 21.7269 38.5655 20.8874V15.6993C38.5655 15.0612 38.729 14.5827 39.0562 14.2637C39.4006 13.9447 39.8828 13.7852 40.5028 13.7852C41.1399 13.7852 41.6221 13.9447 41.9493 14.2637C42.2937 14.5827 42.4659 15.0612 42.4659 15.6993V24.64C42.4659 25.9328 41.8373 26.5793 40.5802 26.5793C39.9603 26.5793 39.4867 26.4114 39.1596 26.0755C38.8324 25.7397 38.6688 25.2612 38.6688 24.64V22.9526L39.0562 23.9348C38.6774 24.7911 38.1349 25.4543 37.4289 25.9244C36.7229 26.3946 35.8877 26.6296 34.9233 26.6296Z" fill="white"/>
<path d="M47.4988 26.5793C46.8444 26.5793 46.345 26.4114 46.0006 26.0755C45.6562 25.7397 45.484 25.2612 45.484 24.64V15.6993C45.484 15.078 45.6476 14.6079 45.9748 14.2889C46.3192 13.9531 46.7928 13.7852 47.3955 13.7852C48.0154 13.7852 48.489 13.9531 48.8162 14.2889C49.1433 14.6079 49.3069 15.078 49.3069 15.6993V17.0089H49.0486C49.2553 16.0015 49.7116 15.2207 50.4177 14.6667C51.1237 14.1126 52.0364 13.802 53.1557 13.7348C53.5862 13.7012 53.9134 13.8104 54.1373 14.0622C54.3783 14.2973 54.5075 14.6918 54.5247 15.2459C54.5592 15.7664 54.4472 16.1778 54.1889 16.48C53.9478 16.7822 53.5345 16.9669 52.9491 17.0341L52.3549 17.0844C51.3734 17.1684 50.6415 17.4454 50.1593 17.9155C49.6944 18.3857 49.4619 19.0657 49.4619 19.9555V24.64C49.4619 25.2612 49.2897 25.7397 48.9453 26.0755C48.6181 26.4114 48.136 26.5793 47.4988 26.5793Z" fill="white"/>
<path d="M58.3246 26.5793C57.7391 26.5793 57.2914 26.4197 56.9814 26.1007C56.6715 25.7817 56.5165 25.3368 56.5165 24.7659V10.1837C56.5165 9.61283 56.6801 9.16789 57.0073 8.84888C57.3517 8.52987 57.8166 8.37036 58.4021 8.37036C58.9187 8.37036 59.3234 8.4711 59.6162 8.67258C59.9261 8.85728 60.2103 9.18468 60.4686 9.65481L66.4354 20.283H65.5572L71.5241 9.65481C71.7824 9.18468 72.0579 8.85728 72.3506 8.67258C72.6606 8.4711 73.0653 8.37036 73.5647 8.37036C74.1502 8.37036 74.5979 8.52987 74.9079 8.84888C75.2351 9.16789 75.3986 9.61283 75.3986 10.1837V24.7659C75.3986 25.3368 75.2437 25.7817 74.9337 26.1007C74.6237 26.4197 74.176 26.5793 73.5905 26.5793C73.005 26.5793 72.5487 26.4197 72.2215 26.1007C71.9115 25.7817 71.7565 25.3368 71.7565 24.7659V14.5659H72.3248L67.5203 22.9526C67.3137 23.2716 67.0898 23.5151 66.8487 23.683C66.6249 23.8341 66.3235 23.9096 65.9447 23.9096C65.5658 23.9096 65.2558 23.8257 65.0148 23.6578C64.7737 23.4899 64.5584 23.2548 64.369 22.9526L59.5128 14.5407H60.1328V24.7659C60.1328 25.3368 59.9778 25.7817 59.6678 26.1007C59.3751 26.4197 58.9273 26.5793 58.3246 26.5793Z" fill="white"/>
<path d="M85.3428 26.6296C83.8446 26.6296 82.5531 26.3694 81.4682 25.8489C80.4006 25.3116 79.574 24.5644 78.9885 23.6074C78.4202 22.6336 78.1361 21.4918 78.1361 20.1822C78.1361 18.9062 78.4116 17.7896 78.9627 16.8326C79.5137 15.8588 80.28 15.1032 81.2616 14.5659C82.2604 14.0118 83.3883 13.7348 84.6454 13.7348C85.5581 13.7348 86.3846 13.8859 87.1251 14.1881C87.8656 14.4736 88.5028 14.8933 89.0366 15.4474C89.5704 15.9847 89.9751 16.6479 90.2506 17.437C90.5261 18.2094 90.6639 19.0741 90.6639 20.0311C90.6639 20.3501 90.5606 20.5936 90.3539 20.7615C90.1473 20.9126 89.8459 20.9881 89.4499 20.9881H81.3391V19.0237H87.8484L87.4351 19.3763C87.4351 18.6879 87.3318 18.117 87.1251 17.6637C86.9185 17.1936 86.6171 16.841 86.2211 16.6059C85.8422 16.3709 85.3686 16.2533 84.8004 16.2533C84.1632 16.2533 83.6208 16.396 83.173 16.6815C82.7253 16.9669 82.3809 17.3783 82.1398 17.9155C81.8987 18.4528 81.7782 19.0993 81.7782 19.8548V20.0563C81.7782 21.3323 82.0796 22.2726 82.6823 22.877C83.3022 23.4815 84.2149 23.7837 85.4203 23.7837C85.8336 23.7837 86.3072 23.7333 86.841 23.6326C87.3748 23.5318 87.8742 23.3723 88.3392 23.1541C88.7352 22.9694 89.0882 22.9106 89.3982 22.9778C89.7082 23.0281 89.9493 23.1625 90.1215 23.3807C90.2937 23.599 90.3884 23.8509 90.4056 24.1363C90.44 24.4217 90.3798 24.7072 90.2248 24.9926C90.0698 25.2612 89.8115 25.4879 89.4499 25.6726C88.8644 25.9916 88.2014 26.2267 87.4609 26.3778C86.7377 26.5457 86.0316 26.6296 85.3428 26.6296Z" fill="white"/>
<path d="M97.2204 26.6296C96.2905 26.6296 95.4553 26.4533 94.7149 26.1007C93.9744 25.7481 93.3975 25.2696 92.9842 24.6652C92.5709 24.0607 92.3643 23.3807 92.3643 22.6252C92.3643 21.7185 92.6054 21.0049 93.0875 20.4844C93.5697 19.9472 94.3532 19.5694 95.4381 19.3511C96.523 19.116 97.9609 18.9985 99.7518 18.9985H101.121V20.963H99.7777C98.8994 20.963 98.1848 21.0133 97.6337 21.1141C97.0999 21.198 96.7124 21.3491 96.4714 21.5674C96.2475 21.7857 96.1356 22.0879 96.1356 22.4741C96.1356 22.9442 96.2991 23.3304 96.6263 23.6326C96.9707 23.9348 97.4615 24.0859 98.0987 24.0859C98.5981 24.0859 99.0372 23.9768 99.416 23.7585C99.8121 23.5234 100.122 23.2128 100.346 22.8267C100.57 22.4237 100.682 21.9704 100.682 21.4667V18.5704C100.682 17.8316 100.51 17.3111 100.165 17.0089C99.8207 16.6899 99.2352 16.5304 98.4086 16.5304C97.9437 16.5304 97.4357 16.5891 96.8846 16.7067C96.3508 16.8074 95.7567 16.9837 95.1023 17.2355C94.7235 17.4034 94.3877 17.4454 94.0949 17.3615C93.8022 17.2607 93.5783 17.0928 93.4233 16.8578C93.2684 16.6059 93.1909 16.3373 93.1909 16.0518C93.1909 15.7496 93.277 15.4642 93.4492 15.1955C93.6214 14.9101 93.9055 14.7002 94.3016 14.5659C95.1109 14.2469 95.8686 14.0286 96.5747 13.9111C97.2979 13.7936 97.9609 13.7348 98.5636 13.7348C99.8896 13.7348 100.974 13.9279 101.818 14.3141C102.679 14.6834 103.325 15.2627 103.756 16.0518C104.186 16.8242 104.401 17.8232 104.401 19.0489V24.64C104.401 25.2612 104.246 25.7397 103.936 26.0755C103.626 26.4114 103.179 26.5793 102.593 26.5793C102.008 26.5793 101.551 26.4114 101.224 26.0755C100.914 25.7397 100.759 25.2612 100.759 24.64V23.7081L100.94 23.8593C100.837 24.4301 100.613 24.9254 100.268 25.3452C99.9413 25.7481 99.5194 26.0672 99.0027 26.3022C98.4861 26.5205 97.892 26.6296 97.2204 26.6296Z" fill="white"/>
<path d="M111.883 26.6296C110.35 26.6296 109.205 26.2183 108.447 25.3955C107.69 24.556 107.311 23.3136 107.311 21.6681V10.3096C107.311 9.6716 107.475 9.19308 107.802 8.87407C108.146 8.53826 108.637 8.37036 109.274 8.37036C109.894 8.37036 110.368 8.53826 110.695 8.87407C111.039 9.19308 111.211 9.6716 111.211 10.3096V21.517C111.211 22.2054 111.358 22.7175 111.65 23.0533C111.96 23.3723 112.365 23.5318 112.864 23.5318C113.002 23.5318 113.131 23.5234 113.252 23.5067C113.372 23.4899 113.502 23.4815 113.639 23.4815C113.915 23.4479 114.104 23.5318 114.208 23.7333C114.328 23.918 114.388 24.2958 114.388 24.8667C114.388 25.3704 114.285 25.7565 114.079 26.0252C113.872 26.277 113.553 26.4449 113.123 26.5289C112.951 26.5457 112.753 26.5625 112.529 26.5793C112.305 26.6128 112.09 26.6296 111.883 26.6296Z" fill="white"/>
<path d="M145.06 8.16304L147.847 8.07495V17.9405H144.484L145.06 8.16304Z" fill="#FFA132"/>
<ellipse cx="136.475" cy="25.1635" rx="3.31877" ry="4.2281" fill="#FFA132"/>
<path d="M130.387 11.3781C130.387 13.7133 128.768 13.316 126.935 13.316C125.102 13.316 123.882 12.6994 123.882 11.8626C123.882 9.52749 125.235 9.22005 127.068 9.22005C128.901 9.22005 130.387 9.04303 130.387 11.3781Z" fill="#FFA132"/>
<path d="M122.233 3.79136C122.07 3.88241 121.854 4.07751 121.743 4.22708L121.547 4.50671V7.99242V11.4846L121.717 11.9203C122.331 13.4876 123.651 14.5281 125.238 14.6907L125.663 14.7362L125.696 22.6051L125.729 30.4739L125.872 30.708C125.957 30.8381 126.147 31.0267 126.297 31.1307C126.539 31.2998 126.624 31.3193 127.068 31.3193C127.506 31.3193 127.597 31.2998 127.826 31.1438C127.963 31.0462 128.153 30.8576 128.244 30.721L128.407 30.4804L128.44 22.6116L128.473 14.7362L128.897 14.6907C130.524 14.5281 131.949 13.364 132.445 11.8098C132.589 11.3611 132.589 11.2895 132.589 7.93389V4.51322L132.413 4.25959C132.125 3.8564 131.825 3.68731 131.321 3.6613C130.786 3.63529 130.4 3.81087 130.106 4.22708L129.91 4.50671L129.878 6.13901L129.845 7.77781H129.159H128.473L128.44 6.14552C128.407 4.53923 128.407 4.51322 128.244 4.2791C127.97 3.8694 127.636 3.68731 127.14 3.6613C126.604 3.63529 126.219 3.81087 125.925 4.22708L125.729 4.50671L125.696 6.13901L125.663 7.77781H124.977H124.291L124.258 6.14552L124.226 4.51322L124.049 4.25959C123.762 3.8564 123.461 3.68731 122.958 3.6613C122.599 3.64179 122.475 3.6678 122.233 3.79136ZM129.812 10.7368C129.812 11.1335 129.492 11.5692 129.028 11.8163C128.819 11.9268 128.636 11.9399 127.068 11.9399C125.421 11.9399 125.323 11.9333 125.075 11.7968C124.631 11.5627 124.324 11.127 124.324 10.7368V10.5417H127.068H129.812V10.7368Z" fill="white"/>
<path d="M135.777 3.79137C135.614 3.88241 135.398 4.07751 135.287 4.22708L135.091 4.50672L135.058 11.7578L135.026 19.0088L134.477 19.1714C133.105 19.5616 132.079 20.381 131.504 21.532C131.001 22.553 130.916 22.9758 130.916 24.4585C130.916 25.5445 130.936 25.8046 131.053 26.2794C131.694 28.7961 133.111 30.5129 135.091 31.1698C135.477 31.2933 135.686 31.3193 136.431 31.3193C137.175 31.3193 137.385 31.2933 137.77 31.1698C139.75 30.5129 141.168 28.7961 141.808 26.2794C141.926 25.8046 141.945 25.5445 141.945 24.4585C141.945 23.3659 141.926 23.1188 141.801 22.6701C141.311 20.8687 140.142 19.6721 138.384 19.1714L137.835 19.0088L137.803 11.7643L137.77 4.51322L137.594 4.25959C137.306 3.8564 137.006 3.68731 136.502 3.6613C136.143 3.64179 136.019 3.6678 135.777 3.79137ZM137.718 21.8572C138.45 22.1043 138.926 22.6701 139.109 23.4895C139.234 24.0553 139.162 25.473 138.979 26.0518C138.639 27.1183 137.992 28.0157 137.293 28.3669C136.855 28.588 136.012 28.5945 135.581 28.3734C134.836 27.9897 134.235 27.1573 133.869 26.0192C133.739 25.59 133.719 25.4014 133.719 24.4585C133.719 23.4115 133.726 23.379 133.909 22.9758C134.235 22.2734 134.902 21.8182 135.777 21.7011C135.777 21.7011 137.313 21.7271 137.718 21.8572Z" fill="white"/>
<path d="M148.375 3.76535C147.538 4.20107 146.245 5.38464 145.448 6.43166C143.461 9.06544 142.305 12.7853 142.037 17.435C141.939 19.1389 141.985 19.3925 142.436 19.8412C142.873 20.2769 142.991 20.2964 145.474 20.2964H147.604V25.3234V30.3569L147.754 30.63C147.832 30.7861 148.028 31.0007 148.185 31.1177C148.44 31.2998 148.505 31.3193 148.969 31.3193C149.414 31.3193 149.505 31.2998 149.734 31.1438C149.871 31.0462 150.061 30.8576 150.152 30.721L150.315 30.4804V17.5001V4.51322L150.139 4.25959C149.851 3.84989 149.551 3.68731 149.048 3.6613C148.721 3.64829 148.558 3.6678 148.375 3.76535ZM147.604 12.8828V17.5001H146.219H144.84L144.886 16.8302C145.003 15.0419 145.441 12.8828 146.01 11.2895C146.388 10.236 147.408 8.26555 147.571 8.26555C147.591 8.26555 147.604 10.3401 147.604 12.8828Z" fill="white"/>
</svg>
