<svg width="36" height="36" viewBox="0 0 36 36" fill="none" xmlns="http://www.w3.org/2000/svg">
<g clip-path="url(#clip0_3_466)">
<path d="M17.9998 0C8.05851 0 -0.000244141 8.05875 -0.000244141 18C-0.000244141 27.9412 8.05851 36 17.9998 36C27.941 36 35.9998 27.9412 35.9998 18C35.9998 8.05875 27.941 0 17.9998 0ZM24.9223 20.3081C24.9223 20.3081 26.5141 21.8794 26.906 22.6087C26.9173 22.6237 26.9229 22.6387 26.9266 22.6462C27.086 22.9144 27.1235 23.1225 27.0448 23.2781C26.9135 23.5369 26.4635 23.6644 26.3098 23.6756H23.4973C23.3023 23.6756 22.8935 23.625 22.3985 23.2837C22.0179 23.0175 21.6429 22.5806 21.2773 22.155C20.7316 21.5212 20.2591 20.9738 19.7829 20.9738C19.7224 20.9736 19.6623 20.9831 19.6048 21.0019C19.2448 21.1181 18.7835 21.6319 18.7835 23.0006C18.7835 23.4281 18.446 23.6737 18.2079 23.6737H16.9198C16.481 23.6737 14.1954 23.52 12.1704 21.3844C9.69163 18.7687 7.46038 13.5225 7.44163 13.4737C7.30101 13.1344 7.59163 12.9525 7.90851 12.9525H10.7491C11.1279 12.9525 11.2516 13.1831 11.3379 13.3875C11.4391 13.6256 11.8104 14.5725 12.4198 15.6375C13.4079 17.3737 14.0135 18.0787 14.4991 18.0787C14.5902 18.0777 14.6796 18.0545 14.7598 18.0112C15.3935 17.6587 15.2754 15.3994 15.2473 14.9306C15.2473 14.8425 15.2454 13.92 14.921 13.4775C14.6885 13.1569 14.2929 13.035 14.0529 12.99C14.15 12.856 14.278 12.7473 14.426 12.6731C14.861 12.4556 15.6448 12.4237 16.4229 12.4237H16.856C17.6998 12.435 17.9173 12.4894 18.2229 12.5662C18.8416 12.7144 18.8548 13.1137 18.8004 14.4806C18.7835 14.8687 18.7666 15.3075 18.7666 15.825C18.7666 15.9375 18.761 16.0575 18.761 16.185C18.7423 16.8806 18.7198 17.67 19.211 17.9944C19.2751 18.0346 19.3491 18.056 19.4248 18.0562C19.5954 18.0562 20.1091 18.0562 21.5004 15.6694C21.9294 14.9011 22.3023 14.1028 22.616 13.2806C22.6441 13.2319 22.7266 13.0819 22.8241 13.0237C22.8961 12.9871 22.9759 12.9684 23.0566 12.9694H26.396C26.7598 12.9694 27.0091 13.0237 27.056 13.1644C27.1385 13.3875 27.041 14.0681 25.5166 16.1325L24.836 17.0306C23.4541 18.8419 23.4541 18.9338 24.9223 20.3081Z" fill="#FF7020"/>
</g>
<defs>
<clipPath id="clip0_3_466">
<rect width="36" height="36" fill="white"/>
</clipPath>
</defs>
</svg>
